<svg xmlns="http://www.w3.org/2000/svg" width="759.392" height="1614.891" viewBox="0 0 759.392 1614.891">
  <path id="Path_4" data-name="Path 4" d="M1794.335,2365.138c3.2-102.073,13.711-209.824-51.384-72.938-34.3,72.123-191.769,120.944-195.619,208.129-6.828,154.629-135.894,199.864-106.758,339.224.418,2.7.013,3.708.432,5.278,21.333,80,142.327,115.32,106.327,272.653-25.452,111.234-82.227,107.76-127.6,147.667-18.591,16.351-46.014,46.928-57.734,89.511-31.667,180-458.5,23.168-281.7,198.234S1366,3625.329,1362,3764s185.333,51.333,185.333,51.333,22.667-344,144-236,95-176.844,96.773-275.767,3.118-26.706,0-119.819c-.55-47.49.489-64.091,0-97.811a530.523,530.523,0,0,1,6.23-86.868Z" transform="translate(-1037.558 -2227.576)" fill="#97cadb" opacity="0.85"/>
</svg>
