<svg xmlns="http://www.w3.org/2000/svg" width="1936.6" height="917.742" viewBox="0 0 1936.6 917.742">
  <path id="Path_1" data-name="Path 1" d="M-136.333-265.005s.477,9.27-1.277,28.17c2.265,8.929-9.29,16.149,20.61,33.169,86.667,49.333,322,405,596.667,222.333C594.2-57.5,733.561-141.266,860.333-203.667c176.625-86.939,335.721-130.839,431.333-43,164,150.667,314.667,375,468,240.333,25.944-22.785,24.217-41.625,23.777-61.27-.753-22.64-.182-47.229.024-72.358-.492-71.46.545-146.09,0-245.039-.874-158.573,3.567-130.958-.291-259.919.3-21.148-117.439,64.752-206.109,28.62-103.159-42.035-181.1-205.032-207.358-205.832-16.861-.513-36.342.533-58.391,0-8.239-.2-15.673-.162-25.046,0a135.56,135.56,0,0,1-13.936,0c-.789.393-12.324.418-28.041,0-7.9-.21-17.437-1.209-26.919-.891-10.2,1.326-20.8.154-30.7.891a47.7,47.7,0,0,1-8.656,0c-.944-.09-1.917.108-3.467,0-.6-.052-1.829-.558-2.438,0-.372.34-.884.031-2.66,0-11.6-.188-54.106-.118-54.337,0-2.492-.613-3.875-.375-6.721,0-47.846,6.288-124.086-25.556-248.062-.891-98.35-2.418-262.583,5.282-410.725.813-5.038-.152-15.677-.145-28.227,0-14.351.166-30.355.105-40.772,0-2.921-.03-5.64-.4-7.393,0-24.569,5.606-61.507-22.818-78.776.078-27.02-11.919-21.373,1.875-39.736-.891-33.059-4.978-79.864-9.1-123.975-15.8-117.464-17.84-246.92-2.427-267.064,0-40.72,4.906,14.525,172.975-9.5,222.52-1.771,3.654,8.9,3.393,8.861,9.6-.057,10.149-.127,23.406,0,35.107.162,14.926.034,26.359,0,39.2-.038,14.557-.072,25.084-.072,25.084l.707,187.289" transform="translate(151.822 847.316)" fill="#97cadb" opacity="0.85"/>
</svg>
